<mxfile host="Electron" modified="2024-05-28T07:40:53.761Z" agent="Mozilla/5.0 (Windows NT 10.0; Win64; x64) AppleWebKit/537.36 (KHTML, like Gecko) draw.io/24.4.0 Chrome/120.0.6099.109 Electron/28.1.0 Safari/537.36" etag="ucAX4buRbnLf57W5h9nu" version="24.4.0" type="device">
  <diagram name="Page-1" id="k2Z0eVk7_0BDEtZ7psvc">
    <mxGraphModel dx="1050" dy="621" grid="1" gridSize="10" guides="1" tooltips="1" connect="1" arrows="1" fold="1" page="1" pageScale="1" pageWidth="850" pageHeight="1100" math="0" shadow="0">
      <root>
        <mxCell id="0" />
        <mxCell id="1" parent="0" />
        <mxCell id="jVEVC9B7yiOvksJB15E_-1" value="&lt;div&gt;&lt;br&gt;&lt;/div&gt;&lt;div&gt;&lt;br&gt;&lt;/div&gt;&lt;div&gt;&lt;br&gt;&lt;/div&gt;&lt;div&gt;&lt;br&gt;&lt;/div&gt;&lt;div&gt;&lt;br&gt;&lt;/div&gt;&lt;div&gt;&lt;br&gt;&lt;/div&gt;&lt;div&gt;&lt;br&gt;&lt;/div&gt;&lt;div&gt;&lt;br&gt;&lt;/div&gt;&lt;div&gt;&lt;br&gt;&lt;/div&gt;&lt;div&gt;&lt;br&gt;&lt;/div&gt;&lt;div&gt;&lt;br&gt;&lt;/div&gt;&lt;div&gt;&lt;br&gt;&lt;/div&gt;&lt;div&gt;&lt;br&gt;&lt;/div&gt;&lt;div&gt;&lt;br&gt;&lt;/div&gt;&lt;div&gt;&lt;br&gt;&lt;/div&gt;&lt;div&gt;&lt;br&gt;&lt;/div&gt;&lt;div&gt;&lt;br&gt;&lt;/div&gt;&lt;div&gt;&lt;br&gt;&lt;/div&gt;&lt;div&gt;&lt;br&gt;&lt;/div&gt;&lt;div&gt;&lt;br&gt;&lt;/div&gt;" style="rounded=1;whiteSpace=wrap;html=1;direction=south;" parent="1" vertex="1">
          <mxGeometry x="12.5" y="80" width="160" height="350" as="geometry" />
        </mxCell>
        <mxCell id="jVEVC9B7yiOvksJB15E_-2" value="&lt;font style=&quot;font-size: 16px;&quot;&gt;Clilent side&lt;/font&gt;" style="text;html=1;align=center;verticalAlign=middle;whiteSpace=wrap;rounded=0;" parent="1" vertex="1">
          <mxGeometry x="40" y="40" width="90" height="20" as="geometry" />
        </mxCell>
        <mxCell id="jVEVC9B7yiOvksJB15E_-4" value="Website&lt;div&gt;&lt;br&gt;&lt;/div&gt;" style="sketch=0;pointerEvents=1;shadow=0;dashed=0;html=1;strokeColor=none;fillColor=#505050;labelPosition=center;verticalLabelPosition=bottom;verticalAlign=top;outlineConnect=0;align=center;shape=mxgraph.office.devices.laptop;" parent="1" vertex="1">
          <mxGeometry x="45" y="110" width="95" height="60" as="geometry" />
        </mxCell>
        <mxCell id="jVEVC9B7yiOvksJB15E_-5" value="&lt;span style=&quot;text-wrap: wrap;&quot;&gt;Progressive web application&lt;/span&gt;" style="verticalLabelPosition=bottom;verticalAlign=top;html=1;shadow=0;dashed=0;strokeWidth=1;shape=mxgraph.android.phone2;strokeColor=#c0c0c0;" parent="1" vertex="1">
          <mxGeometry x="65" y="240" width="55" height="100" as="geometry" />
        </mxCell>
        <mxCell id="jVEVC9B7yiOvksJB15E_-8" value="" style="rounded=1;whiteSpace=wrap;html=1;direction=south;" parent="1" vertex="1">
          <mxGeometry x="290" y="75" width="300" height="360" as="geometry" />
        </mxCell>
        <mxCell id="jVEVC9B7yiOvksJB15E_-9" value="&lt;font style=&quot;font-size: 16px;&quot;&gt;Application Layer&lt;/font&gt;" style="text;html=1;align=center;verticalAlign=middle;whiteSpace=wrap;rounded=0;" parent="1" vertex="1">
          <mxGeometry x="350" y="30" width="165" height="30" as="geometry" />
        </mxCell>
        <mxCell id="jVEVC9B7yiOvksJB15E_-10" value="Authentication" style="ellipse;shape=cloud;whiteSpace=wrap;html=1;" parent="1" vertex="1">
          <mxGeometry x="290" y="210" width="120" height="80" as="geometry" />
        </mxCell>
        <mxCell id="jVEVC9B7yiOvksJB15E_-13" value="&lt;font style=&quot;font-size: 15px;&quot;&gt;Google Maps Api&lt;/font&gt;" style="rounded=0;whiteSpace=wrap;html=1;direction=north;" parent="1" vertex="1">
          <mxGeometry x="440" y="110" width="60" height="140" as="geometry" />
        </mxCell>
        <mxCell id="jVEVC9B7yiOvksJB15E_-14" value="" style="shape=doubleArrow;whiteSpace=wrap;html=1;" parent="1" vertex="1">
          <mxGeometry x="172.5" y="210" width="117.5" height="60" as="geometry" />
        </mxCell>
        <mxCell id="jVEVC9B7yiOvksJB15E_-15" value="&lt;font style=&quot;font-size: 15px;&quot;&gt;Daraja API (M-Pesa)&lt;/font&gt;" style="rounded=0;whiteSpace=wrap;html=1;direction=south;" parent="1" vertex="1">
          <mxGeometry x="440" y="310" width="60" height="120" as="geometry" />
        </mxCell>
        <mxCell id="jVEVC9B7yiOvksJB15E_-17" value="" style="rounded=1;whiteSpace=wrap;html=1;direction=south;" parent="1" vertex="1">
          <mxGeometry x="680" y="80" width="160" height="350" as="geometry" />
        </mxCell>
        <mxCell id="jVEVC9B7yiOvksJB15E_-18" value="&lt;font style=&quot;font-size: 16px;&quot;&gt;Server Side&lt;/font&gt;" style="text;html=1;align=center;verticalAlign=middle;whiteSpace=wrap;rounded=0;" parent="1" vertex="1">
          <mxGeometry x="710" y="30" width="110" height="30" as="geometry" />
        </mxCell>
        <mxCell id="jVEVC9B7yiOvksJB15E_-19" value="" style="strokeWidth=2;html=1;shape=mxgraph.flowchart.database;whiteSpace=wrap;" parent="1" vertex="1">
          <mxGeometry x="720" y="180" width="90" height="100" as="geometry" />
        </mxCell>
        <mxCell id="jVEVC9B7yiOvksJB15E_-20" value="MySQL" style="text;html=1;align=center;verticalAlign=middle;whiteSpace=wrap;rounded=0;" parent="1" vertex="1">
          <mxGeometry x="740" y="285" width="60" height="30" as="geometry" />
        </mxCell>
        <mxCell id="jVEVC9B7yiOvksJB15E_-21" value="" style="shape=doubleArrow;whiteSpace=wrap;html=1;" parent="1" vertex="1">
          <mxGeometry x="590" y="210" width="90" height="60" as="geometry" />
        </mxCell>
      </root>
    </mxGraphModel>
  </diagram>
</mxfile>
